<svg width="20" height="18" viewBox="0 0 20 18" fill="none" xmlns="http://www.w3.org/2000/svg">
<path d="M20 2.78583C19.2639 3.12043 18.4704 3.34032 17.6482 3.44548C18.4895 2.93879 19.1396 2.13573 19.4455 1.17015C18.652 1.64816 17.7725 1.98277 16.8451 2.17397C16.0899 1.35179 15.0287 0.873779 13.8241 0.873779C11.5774 0.873779 9.74187 2.70934 9.74187 4.97512C9.74187 5.30017 9.78012 5.61565 9.84704 5.91202C6.4436 5.73994 3.413 4.10514 1.39579 1.62904C1.04207 2.23133 0.8413 2.93879 0.8413 3.68449C0.8413 5.10896 1.55832 6.37091 2.6673 7.08793C1.98853 7.08793 1.35755 6.89672 0.80306 6.60992V6.6386C0.80306 8.62713 2.21797 10.2906 4.09178 10.6635C3.49018 10.8281 2.8586 10.851 2.24665 10.7304C2.50632 11.5454 3.01485 12.2585 3.70078 12.7695C4.38671 13.2805 5.21553 13.5637 6.07075 13.5793C4.62106 14.727 2.82409 15.3473 0.975143 15.3384C0.650096 15.3384 0.325048 15.3193 0 15.281C1.81644 16.4474 3.97706 17.1262 6.29063 17.1262C13.8241 17.1262 17.9637 10.8738 17.9637 5.45313C17.9637 5.27149 17.9637 5.0994 17.9541 4.91776C18.7572 4.34414 19.4455 3.61757 20 2.78583Z" fill="#A3A3A3"/>
</svg>
